<?xml version="1.0" encoding="utf-8"?>
<svg xmlns="http://www.w3.org/2000/svg" style="margin: auto; display: block; shape-rendering: auto;" width="280" height="250" preserveAspectRatio="xMidYMid">
<style type="text/css">
  text {
    text-anchor: middle; font-size: 40px; opacity: 0;
  }
</style>
<g style="transform-origin: 140px 125px; transform: scale(2.35294);">
<g transform="translate(140,125)">
  <g transform="translate(0,0)"><g class="path" style="opacity: 1; transform-origin: -43.57px -1.45397px; animation: 1s linear -0.605s infinite normal forwards running fade-ae72b4a1-c36c-41b2-98f6-8ffe6a869936;"><path d="M3.15 0L1.53 0L1.53-11.90L3.15-11.90L3.15 0" fill="#1cb335" stroke="none" stroke-width="none" transform="translate(-45.90997314453125,4.4960307820638095)" style="fill: rgb(28, 179, 53);"></path></g><g class="path" style="opacity: 1; transform-origin: -33.41px -0.0239692px; animation: 1s linear -0.55s infinite normal forwards running fade-ae72b4a1-c36c-41b2-98f6-8ffe6a869936;"><path d="M7.51-8.84L7.51-7.36L7.51-7.36Q7.99-8.08 8.71-8.56L8.71-8.56L8.71-8.56Q9.44-9.04 10.39-9.04L10.39-9.04L10.39-9.04Q11.44-9.04 12.10-8.54L12.10-8.54L12.10-8.54Q12.77-8.04 13.06-7.17L13.06-7.17L13.06-7.17Q13.58-7.96 14.31-8.50L14.31-8.50L14.31-8.50Q15.03-9.04 16.10-9.04L16.10-9.04L16.10-9.04Q16.81-9.04 17.35-8.81L17.35-8.81L17.35-8.81Q17.88-8.57 18.24-8.13L18.24-8.13L18.24-8.13Q18.60-7.70 18.78-7.10L18.78-7.10L18.78-7.10Q18.96-6.49 18.96-5.76L18.96-5.76L18.96 0L17.43 0L17.43-5.64L17.43-5.64Q17.43-6.56 17-7.13L17-7.13L17-7.13Q16.58-7.70 15.83-7.70L15.83-7.70L15.83-7.70Q15.44-7.70 15.08-7.55L15.08-7.55L15.08-7.55Q14.72-7.40 14.40-7.13L14.40-7.13L14.40-7.13Q14.08-6.87 13.79-6.52L13.79-6.52L13.79-6.52Q13.50-6.17 13.26-5.80L13.26-5.80L13.26 0L11.73 0L11.73-5.64L11.73-5.64Q11.73-6.56 11.31-7.13L11.31-7.13L11.31-7.13Q10.88-7.70 10.13-7.70L10.13-7.70L10.13-7.70Q9.76-7.70 9.40-7.56L9.40-7.56L9.40-7.56Q9.04-7.41 8.71-7.16L8.71-7.16L8.71-7.16Q8.38-6.90 8.09-6.56L8.09-6.56L8.09-6.56Q7.80-6.22 7.57-5.85L7.57-5.85L7.57 0L6.04 0L6.04-8.84L7.51-8.84" fill="#1cb335" stroke="none" stroke-width="none" transform="translate(-45.90997314453125,4.4960307820638095)" style="fill: rgb(28, 179, 53);"></path></g><g class="path" style="opacity: 1; transform-origin: -20.595px 0.0760307px; animation: 1s linear -0.495s infinite normal forwards running fade-ae72b4a1-c36c-41b2-98f6-8ffe6a869936;"><path d="M28.15-4.42L28.15-4.42L28.15-4.42Q28.15-5.08 27.94-5.68L27.94-5.68L27.94-5.68Q27.73-6.27 27.34-6.72L27.34-6.72L27.34-6.72Q26.96-7.16 26.44-7.42L26.44-7.42L26.44-7.42Q25.93-7.68 25.31-7.68L25.31-7.68L25.31-7.68Q23.97-7.68 23.22-6.80L23.22-6.80L23.22-6.80Q22.47-5.92 22.47-4.45L22.47-4.45L22.47-4.45Q22.47-3.79 22.69-3.19L22.69-3.19L22.69-3.19Q22.90-2.58 23.28-2.13L23.28-2.13L23.28-2.13Q23.66-1.68 24.18-1.42L24.18-1.42L24.18-1.42Q24.70-1.16 25.31-1.16L25.31-1.16L25.31-1.16Q25.98-1.16 26.50-1.39L26.50-1.39L26.50-1.39Q27.03-1.63 27.40-2.07L27.40-2.07L27.40-2.07Q27.76-2.50 27.96-3.09L27.96-3.09L27.96-3.09Q28.15-3.69 28.15-4.42zM20.91-4.42L20.91-4.42L20.91-4.42Q20.91-5.49 21.25-6.35L21.25-6.35L21.25-6.35Q21.59-7.21 22.18-7.80L22.18-7.80L22.18-7.80Q22.76-8.40 23.57-8.72L23.57-8.72L23.57-8.72Q24.38-9.04 25.31-9.04L25.31-9.04L25.31-9.04Q26.23-9.04 27.04-8.72L27.04-8.72L27.04-8.72Q27.85-8.40 28.44-7.80L28.44-7.80L28.44-7.80Q29.04-7.21 29.38-6.36L29.38-6.36L29.38-6.36Q29.72-5.51 29.72-4.45L29.72-4.45L29.72-4.45Q29.72-3.40 29.38-2.54L29.38-2.54L29.38-2.54Q29.05-1.68 28.46-1.07L28.46-1.07L28.46-1.07Q27.86-0.46 27.06-0.13L27.06-0.13L27.06-0.13Q26.25 0.20 25.31 0.20L25.31 0.20L25.31 0.20Q24.36 0.20 23.55-0.14L23.55-0.14L23.55-0.14Q22.75-0.48 22.16-1.09L22.16-1.09L22.16-1.09Q21.57-1.70 21.24-2.55L21.24-2.55L21.24-2.55Q20.91-3.40 20.91-4.42" fill="#1cb335" stroke="none" stroke-width="none" transform="translate(-45.90997314453125,4.4960307820638095)" style="fill: rgb(28, 179, 53);"></path></g><g class="path" style="opacity: 1; transform-origin: -11.32px -0.00896931px; animation: 1s linear -0.44s infinite normal forwards running fade-ae72b4a1-c36c-41b2-98f6-8ffe6a869936;"><path d="M33.78 0L30.23-8.43L31.62-9.01L34.63-1.73L37.64-9.01L38.95-8.43L35.38 0L33.78 0" fill="#1cb335" stroke="none" stroke-width="none" transform="translate(-45.90997314453125,4.4960307820638095)" style="fill: rgb(28, 179, 53);"></path></g><g class="path" style="opacity: 1; transform-origin: -2.46997px 0.0760307px; animation: 1s linear -0.385s infinite normal forwards running fade-ae72b4a1-c36c-41b2-98f6-8ffe6a869936;"><path d="M47.29-3.79L41.11-3.79L41.11-3.79Q41.26-2.55 41.97-1.85L41.97-1.85L41.97-1.85Q42.69-1.16 43.86-1.16L43.86-1.16L43.86-1.16Q44.63-1.16 45.24-1.32L45.24-1.32L45.24-1.32Q45.85-1.48 46.41-1.73L46.41-1.73L46.77-0.43L46.77-0.43Q46.16-0.14 45.39 0.03L45.39 0.03L45.39 0.03Q44.63 0.20 43.67 0.20L43.67 0.20L43.67 0.20Q42.72 0.20 41.96-0.11L41.96-0.11L41.96-0.11Q41.19-0.43 40.66-1.01L40.66-1.01L40.66-1.01Q40.12-1.60 39.83-2.46L39.83-2.46L39.83-2.46Q39.54-3.32 39.54-4.42L39.54-4.42L39.54-4.42Q39.54-5.41 39.83-6.26L39.83-6.26L39.83-6.26Q40.12-7.11 40.65-7.73L40.65-7.73L40.65-7.73Q41.17-8.35 41.91-8.70L41.91-8.70L41.91-8.70Q42.64-9.04 43.54-9.04L43.54-9.04L43.54-9.04Q44.49-9.04 45.20-8.72L45.20-8.72L45.20-8.72Q45.92-8.40 46.39-7.84L46.39-7.84L46.39-7.84Q46.87-7.28 47.11-6.53L47.11-6.53L47.11-6.53Q47.34-5.78 47.34-4.95L47.34-4.95L47.34-4.95Q47.34-4.35 47.29-3.79L47.29-3.79zM43.50-7.72L43.50-7.72L43.50-7.72Q42.50-7.72 41.86-7.04L41.86-7.04L41.86-7.04Q41.23-6.36 41.09-5.03L41.09-5.03L45.93-5.03L45.93-5.03Q45.93-6.32 45.29-7.02L45.29-7.02L45.29-7.02Q44.64-7.72 43.50-7.72" fill="#1cb335" stroke="none" stroke-width="none" transform="translate(-45.90997314453125,4.4960307820638095)" style="fill: rgb(28, 179, 53);"></path></g><g class="path" style="opacity: 1; transform-origin: 4.24503px 0.0760307px; animation: 1s linear -0.33s infinite normal forwards running fade-ae72b4a1-c36c-41b2-98f6-8ffe6a869936;"><path d="M50.92-8.84L50.92 0L49.39 0L49.39-8.84L50.92-8.84" fill="#1cb335" stroke="none" stroke-width="none" transform="translate(-45.90997314453125,4.4960307820638095)" style="fill: rgb(28, 179, 53);"></path></g><g class="path" style="opacity: 1; transform-origin: 4.24003px -6.92897px; animation: 1s linear -0.275s infinite normal forwards running fade-ae72b4a1-c36c-41b2-98f6-8ffe6a869936;"><path d="M50.15-10.35L50.15-10.35L50.15-10.35Q49.71-10.35 49.39-10.67L49.39-10.67L49.39-10.67Q49.08-10.98 49.08-11.42L49.08-11.42L49.08-11.42Q49.08-11.92 49.37-12.21L49.37-12.21L49.37-12.21Q49.66-12.50 50.15-12.50L50.15-12.50L50.15-12.50Q50.59-12.50 50.91-12.18L50.91-12.18L50.91-12.18Q51.22-11.87 51.22-11.42L51.22-11.42L51.22-11.42Q51.22-10.93 50.93-10.64L50.93-10.64L50.93-10.64Q50.64-10.35 50.15-10.35" fill="#1cb335" stroke="none" stroke-width="none" transform="translate(-45.90997314453125,4.4960307820638095)" style="fill: rgb(28, 179, 53);"></path></g><g class="path" style="opacity: 1; transform-origin: 10.3px 0.0760307px; animation: 1s linear -0.22s infinite normal forwards running fade-ae72b4a1-c36c-41b2-98f6-8ffe6a869936;"><path d="M52.87-0.71L53.52-1.99L53.52-1.99Q53.96-1.60 54.63-1.36L54.63-1.36L54.63-1.36Q55.30-1.12 56.07-1.12L56.07-1.12L56.07-1.12Q57.02-1.12 57.50-1.44L57.50-1.44L57.50-1.44Q57.99-1.75 57.99-2.24L57.99-2.24L57.99-2.24Q57.99-2.50 57.89-2.72L57.89-2.72L57.89-2.72Q57.80-2.94 57.55-3.15L57.55-3.15L57.55-3.15Q57.31-3.35 56.88-3.54L56.88-3.54L56.88-3.54Q56.46-3.74 55.78-3.98L55.78-3.98L55.78-3.98Q54.52-4.40 53.91-4.99L53.91-4.99L53.91-4.99Q53.30-5.58 53.30-6.61L53.30-6.61L53.30-6.61Q53.30-7.12 53.52-7.57L53.52-7.57L53.52-7.57Q53.75-8.01 54.19-8.34L54.19-8.34L54.19-8.34Q54.62-8.67 55.24-8.86L55.24-8.86L55.24-8.86Q55.86-9.04 56.66-9.04L56.66-9.04L56.66-9.04Q57.53-9.04 58.18-8.87L58.18-8.87L58.18-8.87Q58.84-8.69 59.36-8.42L59.36-8.42L58.94-7.16L58.94-7.16Q58.48-7.43 57.89-7.60L57.89-7.60L57.89-7.60Q57.31-7.77 56.59-7.77L56.59-7.77L56.59-7.77Q55.71-7.77 55.25-7.41L55.25-7.41L55.25-7.41Q54.79-7.06 54.79-6.63L54.79-6.63L54.79-6.63Q54.79-6.43 54.87-6.26L54.87-6.26L54.87-6.26Q54.94-6.09 55.15-5.93L55.15-5.93L55.15-5.93Q55.35-5.78 55.69-5.63L55.69-5.63L55.69-5.63Q56.03-5.47 56.54-5.30L56.54-5.30L56.54-5.30Q57.38-5.02 57.95-4.72L57.95-4.72L57.95-4.72Q58.53-4.42 58.89-4.06L58.89-4.06L58.89-4.06Q59.25-3.71 59.40-3.29L59.40-3.29L59.40-3.29Q59.55-2.87 59.55-2.36L59.55-2.36L59.55-2.36Q59.55-1.77 59.30-1.29L59.30-1.29L59.30-1.29Q59.04-0.82 58.58-0.48L58.58-0.48L58.58-0.48Q58.12-0.15 57.47 0.03L57.47 0.03L57.47 0.03Q56.81 0.20 56.02 0.20L56.02 0.20L56.02 0.20Q55.00 0.20 54.20-0.05L54.20-0.05L54.20-0.05Q53.40-0.31 52.87-0.71L52.87-0.71" fill="#1cb335" stroke="none" stroke-width="none" transform="translate(-45.90997314453125,4.4960307820638095)" style="fill: rgb(28, 179, 53);"></path></g><g class="path" style="opacity: 1; transform-origin: 17.695px -1.05897px; animation: 1s linear -0.165s infinite normal forwards running fade-ae72b4a1-c36c-41b2-98f6-8ffe6a869936;"><path d="M61.97-8.52L62.29-11.31L63.46-11.31L63.46-8.52L65.91-8.52L65.91-7.19L63.46-7.19L63.46-2.92L63.46-2.92Q63.46-2.43 63.57-2.09L63.57-2.09L63.57-2.09Q63.68-1.75 63.87-1.55L63.87-1.55L63.87-1.55Q64.06-1.34 64.32-1.25L64.32-1.25L64.32-1.25Q64.58-1.16 64.87-1.16L64.87-1.16L64.87-1.16Q65.30-1.16 65.67-1.29L65.67-1.29L65.67-1.29Q66.05-1.43 66.39-1.62L66.39-1.62L66.81-0.39L66.81-0.39Q66.47-0.19 65.89 0.01L65.89 0.01L65.89 0.01Q65.31 0.20 64.69 0.20L64.69 0.20L64.69 0.20Q63.41 0.20 62.67-0.63L62.67-0.63L62.67-0.63Q61.93-1.46 61.93-3.04L61.93-3.04L61.93-7.19L60.40-7.19L60.40-8.52L61.97-8.52" fill="#1cb335" stroke="none" stroke-width="none" transform="translate(-45.90997314453125,4.4960307820638095)" style="fill: rgb(28, 179, 53);"></path></g><g class="path" style="opacity: 1; transform-origin: 25.815px 0.0760307px; animation: 1s linear -0.11s infinite normal forwards running fade-ae72b4a1-c36c-41b2-98f6-8ffe6a869936;"><path d="M74.56-4.42L74.56-4.42L74.56-4.42Q74.56-5.08 74.35-5.68L74.35-5.68L74.35-5.68Q74.14-6.27 73.75-6.72L73.75-6.72L73.75-6.72Q73.37-7.16 72.85-7.42L72.85-7.42L72.85-7.42Q72.34-7.68 71.72-7.68L71.72-7.68L71.72-7.68Q70.38-7.68 69.63-6.80L69.63-6.80L69.63-6.80Q68.88-5.92 68.88-4.45L68.88-4.45L68.88-4.45Q68.88-3.79 69.10-3.19L69.10-3.19L69.10-3.19Q69.31-2.58 69.69-2.13L69.69-2.13L69.69-2.13Q70.07-1.68 70.59-1.42L70.59-1.42L70.59-1.42Q71.11-1.16 71.72-1.16L71.72-1.16L71.72-1.16Q72.39-1.16 72.91-1.39L72.91-1.39L72.91-1.39Q73.44-1.63 73.81-2.07L73.81-2.07L73.81-2.07Q74.17-2.50 74.37-3.09L74.37-3.09L74.37-3.09Q74.56-3.69 74.56-4.42zM67.32-4.42L67.32-4.42L67.32-4.42Q67.32-5.49 67.66-6.35L67.66-6.35L67.66-6.35Q68-7.21 68.59-7.80L68.59-7.80L68.59-7.80Q69.17-8.40 69.98-8.72L69.98-8.72L69.98-8.72Q70.79-9.04 71.72-9.04L71.72-9.04L71.72-9.04Q72.64-9.04 73.45-8.72L73.45-8.72L73.45-8.72Q74.26-8.40 74.85-7.80L74.85-7.80L74.85-7.80Q75.45-7.21 75.79-6.36L75.79-6.36L75.79-6.36Q76.13-5.51 76.13-4.45L76.13-4.45L76.13-4.45Q76.13-3.40 75.79-2.54L75.79-2.54L75.79-2.54Q75.46-1.68 74.87-1.07L74.87-1.07L74.87-1.07Q74.27-0.46 73.47-0.13L73.47-0.13L73.47-0.13Q72.66 0.20 71.72 0.20L71.72 0.20L71.72 0.20Q70.77 0.20 69.96-0.14L69.96-0.14L69.96-0.14Q69.16-0.48 68.57-1.09L68.57-1.09L68.57-1.09Q67.98-1.70 67.65-2.55L67.65-2.55L67.65-2.55Q67.32-3.40 67.32-4.42" fill="#1cb335" stroke="none" stroke-width="none" transform="translate(-45.90997314453125,4.4960307820638095)" style="fill: rgb(28, 179, 53);"></path></g><g class="path" style="opacity: 1; transform-origin: 35.08px 0.0760307px; animation: 1s linear -0.055s infinite normal forwards running fade-ae72b4a1-c36c-41b2-98f6-8ffe6a869936;"><path d="M84.27-8.52L83.81-7.23L83.81-7.23Q83.32-7.46 82.89-7.57L82.89-7.57L82.89-7.57Q82.47-7.68 81.94-7.68L81.94-7.68L81.94-7.68Q81.34-7.68 80.83-7.46L80.83-7.46L80.83-7.46Q80.31-7.24 79.93-6.83L79.93-6.83L79.93-6.83Q79.56-6.41 79.35-5.81L79.35-5.81L79.35-5.81Q79.13-5.22 79.13-4.45L79.13-4.45L79.13-4.45Q79.13-3.76 79.33-3.16L79.33-3.16L79.33-3.16Q79.53-2.57 79.88-2.12L79.88-2.12L79.88-2.12Q80.24-1.67 80.73-1.41L80.73-1.41L80.73-1.41Q81.23-1.16 81.84-1.16L81.84-1.16L81.84-1.16Q82.48-1.16 82.94-1.29L82.94-1.29L82.94-1.29Q83.40-1.43 83.93-1.72L83.93-1.72L84.41-0.43L84.41-0.43Q83.86-0.14 83.22 0.03L83.22 0.03L83.22 0.03Q82.57 0.20 81.74 0.20L81.74 0.20L81.74 0.20Q80.78 0.20 80.02-0.14L80.02-0.14L80.02-0.14Q79.25-0.48 78.71-1.09L78.71-1.09L78.71-1.09Q78.17-1.70 77.87-2.55L77.87-2.55L77.87-2.55Q77.57-3.40 77.57-4.42L77.57-4.42L77.57-4.42Q77.57-5.37 77.87-6.21L77.87-6.21L77.87-6.21Q78.17-7.06 78.73-7.68L78.73-7.68L78.73-7.68Q79.29-8.31 80.08-8.68L80.08-8.68L80.08-8.68Q80.87-9.04 81.86-9.04L81.86-9.04L81.86-9.04Q82.62-9.04 83.18-8.91L83.18-8.91L83.18-8.91Q83.74-8.77 84.27-8.52L84.27-8.52" fill="#1cb335" stroke="none" stroke-width="none" transform="translate(-45.90997314453125,4.4960307820638095)" style="fill: rgb(28, 179, 53);"></path></g><g class="path" style="opacity: 1; transform-origin: 43.86px -1.70897px; animation: 1s linear 0s infinite normal forwards running fade-ae72b4a1-c36c-41b2-98f6-8ffe6a869936;"><path d="M86.19 0L86.19-12.58L87.72-12.58L87.72-5.39L91.72-9.01L92.60-8.04L89.18-5.02L93.35-0.85L92.29 0.17L87.72-4.54L87.72 0L86.19 0" fill="#1cb335" stroke="none" stroke-width="none" transform="translate(-45.90997314453125,4.4960307820638095)" style="fill: rgb(28, 179, 53);"></path></g></g>
</g>
</g>
<style id="fade-ae72b4a1-c36c-41b2-98f6-8ffe6a869936" data-anikit="">@keyframes fade-ae72b4a1-c36c-41b2-98f6-8ffe6a869936
{
  0% {
    animation-timing-function: cubic-bezier(0.2057,0.573,0.3723,0.9184);
    opacity: 1;
  }
  100% {
    opacity: 0;
  }
}</style></svg>
